<svg xmlns="http://www.w3.org/2000/svg" xmlns:xlink="http://www.w3.org/1999/xlink" width="800" height="800"><defs><rect id="a" x="16" y="31" width="800" height="800"/></defs><clipPath id="b"><use xlink:href="#a" overflow="visible"/></clipPath><path clip-path="url(#b)" stroke="#262262" stroke-width="40" stroke-miterlimit="10" d="M655 560c0 11.046-8.954 20-20 20h-443c-11.046 0-20-8.954-20-20v-343c0-11.046 8.954-20 20-20h443c11.046 0 20 8.954 20 20v343z" fill="none"/><path clip-path="url(#b)" stroke="#262262" stroke-width="30" stroke-miterlimit="10" d="M578 197s-133-120-206 1" fill="none"/><path clip-path="url(#b)" fill="#262262" d="M409 235.325c0 9.05-7.336 16.386-16.387 16.386h-20.481c-9.049 0-16.385-7.336-16.385-16.386v-22.939c0-9.05 7.336-16.386 16.385-16.386h20.481c9.051 0 16.387 7.336 16.387 16.386v22.939z"/><rect x="178" y="511" clip-path="url(#b)" fill="#262262" width="470" height="64"/><rect x="368.855" y="241.879" clip-path="url(#b)" fill="#262262" width="24.578" height="22.121"/></svg>